<svg width="9" height="10" viewBox="0 0 9 10" fill="none" xmlns="http://www.w3.org/2000/svg">
<g clip-path="url(#clip0_107_212)">
<path d="M4.25 0.75C3.12283 0.75 2.04183 1.19777 1.2448 1.9948C0.447767 2.79183 0 3.87283 0 5C0 6.12717 0.447767 7.20817 1.2448 8.0052C2.04183 8.80223 3.12283 9.25 4.25 9.25C5.37717 9.25 6.45817 8.80223 7.2552 8.0052C8.05223 7.20817 8.5 6.12717 8.5 5C8.5 3.87283 8.05223 2.79183 7.2552 1.9948C6.45817 1.19777 5.37717 0.75 4.25 0.75Z" fill="url(#paint0_linear_107_212)"/>
<path d="M5.56387 2.875C4.39619 2.875 4.25009 3.844 4.25009 3.844C4.25009 3.844 4.10453 2.875 2.93684 2.875C1.81378 2.875 1.48653 4.05544 1.62359 4.68656C1.98484 6.35469 4.25009 7.52344 4.25009 7.52344C4.25009 7.52344 6.51587 6.35469 6.87712 4.68656C7.01366 4.05544 6.68587 2.875 5.56387 2.875Z" fill="white"/>
</g>
<defs>
<linearGradient id="paint0_linear_107_212" x1="4.25" y1="0.75" x2="4.25" y2="9.25" gradientUnits="userSpaceOnUse">
<stop stop-color="#FF6680"/>
<stop offset="1" stop-color="#E61739"/>
</linearGradient>
<clipPath id="clip0_107_212">
<rect width="8.5" height="8.5" fill="white" transform="translate(0 0.75)"/>
</clipPath>
</defs>
</svg>
