<svg width="12" height="12" viewBox="0 0 12 12" fill="none" xmlns="http://www.w3.org/2000/svg">
<g clip-path="url(#clip0_99_89)">
<path d="M0.75 2.62502H0.80325C0.885102 2.94661 1.07177 3.23176 1.33377 3.43543C1.59577 3.6391 1.91815 3.74966 2.25 3.74966C2.58185 3.74966 2.90423 3.6391 3.16623 3.43543C3.42823 3.23176 3.6149 2.94661 3.69675 2.62502H11.25C11.3495 2.62502 11.4448 2.58551 11.5152 2.51518C11.5855 2.44485 11.625 2.34947 11.625 2.25002C11.625 2.15056 11.5855 2.05518 11.5152 1.98485C11.4448 1.91452 11.3495 1.87502 11.25 1.87502H3.69675C3.6149 1.55342 3.42823 1.26827 3.16623 1.0646C2.90423 0.860933 2.58185 0.750366 2.25 0.750366C1.91815 0.750366 1.59577 0.860933 1.33377 1.0646C1.07177 1.26827 0.885102 1.55342 0.80325 1.87502H0.75C0.650544 1.87502 0.555161 1.91452 0.484835 1.98485C0.414509 2.05518 0.375 2.15056 0.375 2.25002C0.375 2.34947 0.414509 2.44485 0.484835 2.51518C0.555161 2.58551 0.650544 2.62502 0.75 2.62502ZM2.25 1.50002C2.39834 1.50002 2.54334 1.544 2.66668 1.62641C2.79001 1.70882 2.88614 1.82596 2.94291 1.963C2.99968 2.10005 3.01453 2.25085 2.98559 2.39633C2.95665 2.54182 2.88522 2.67546 2.78033 2.78035C2.67544 2.88524 2.5418 2.95667 2.39632 2.9856C2.25083 3.01454 2.10003 2.99969 1.96299 2.94293C1.82594 2.88616 1.70881 2.79003 1.6264 2.66669C1.54399 2.54336 1.5 2.39835 1.5 2.25002C1.5 2.0511 1.57902 1.86034 1.71967 1.71969C1.86032 1.57903 2.05109 1.50002 2.25 1.50002ZM11.25 5.62502H11.1967C11.1149 5.30342 10.9282 5.01827 10.6662 4.8146C10.4042 4.61093 10.0818 4.50037 9.75 4.50037C9.41815 4.50037 9.09577 4.61093 8.83377 4.8146C8.57177 5.01827 8.3851 5.30342 8.30325 5.62502H0.75C0.650544 5.62502 0.555161 5.66452 0.484835 5.73485C0.414509 5.80518 0.375 5.90056 0.375 6.00002C0.375 6.09947 0.414509 6.19485 0.484835 6.26518C0.555161 6.33551 0.650544 6.37502 0.75 6.37502H8.30325C8.3851 6.69661 8.57177 6.98176 8.83377 7.18543C9.09577 7.3891 9.41815 7.49967 9.75 7.49967C10.0818 7.49967 10.4042 7.3891 10.6662 7.18543C10.9282 6.98176 11.1149 6.69661 11.1967 6.37502H11.25C11.3495 6.37502 11.4448 6.33551 11.5152 6.26518C11.5855 6.19485 11.625 6.09947 11.625 6.00002C11.625 5.90056 11.5855 5.80518 11.5152 5.73485C11.4448 5.66452 11.3495 5.62502 11.25 5.62502ZM9.75 6.75002C9.60166 6.75002 9.45666 6.70603 9.33332 6.62362C9.20999 6.54121 9.11386 6.42407 9.05709 6.28703C9.00032 6.14998 8.98547 5.99918 9.01441 5.8537C9.04335 5.70821 9.11478 5.57457 9.21967 5.46969C9.32456 5.3648 9.4582 5.29337 9.60368 5.26443C9.74917 5.23549 9.89997 5.25034 10.037 5.30711C10.1741 5.36387 10.2912 5.46 10.3736 5.58334C10.456 5.70667 10.5 5.85168 10.5 6.00002C10.5 6.19893 10.421 6.38969 10.2803 6.53035C10.1397 6.671 9.94891 6.75002 9.75 6.75002ZM11.25 9.37502H7.44675C7.3649 9.05342 7.17823 8.76827 6.91623 8.5646C6.65423 8.36093 6.33185 8.25037 6 8.25037C5.66815 8.25037 5.34577 8.36093 5.08377 8.5646C4.82177 8.76827 4.6351 9.05342 4.55325 9.37502H0.75C0.650544 9.37502 0.555161 9.41452 0.484835 9.48485C0.414509 9.55518 0.375 9.65056 0.375 9.75002C0.375 9.84947 0.414509 9.94485 0.484835 10.0152C0.555161 10.0855 0.650544 10.125 0.75 10.125H4.55325C4.6351 10.4466 4.82177 10.7318 5.08377 10.9354C5.34577 11.1391 5.66815 11.2497 6 11.2497C6.33185 11.2497 6.65423 11.1391 6.91623 10.9354C7.17823 10.7318 7.3649 10.4466 7.44675 10.125H11.25C11.3495 10.125 11.4448 10.0855 11.5152 10.0152C11.5855 9.94485 11.625 9.84947 11.625 9.75002C11.625 9.65056 11.5855 9.55518 11.5152 9.48485C11.4448 9.41452 11.3495 9.37502 11.25 9.37502ZM6 10.5C5.85166 10.5 5.70666 10.456 5.58332 10.3736C5.45999 10.2912 5.36386 10.1741 5.30709 10.037C5.25032 9.89998 5.23547 9.74918 5.26441 9.6037C5.29335 9.45821 5.36478 9.32458 5.46967 9.21969C5.57456 9.1148 5.7082 9.04337 5.85368 9.01443C5.99917 8.98549 6.14997 9.00034 6.28701 9.05711C6.42406 9.11387 6.54119 9.21 6.6236 9.33334C6.70601 9.45667 6.75 9.60168 6.75 9.75002C6.75 9.94893 6.67098 10.1397 6.53033 10.2803C6.38968 10.421 6.19891 10.5 6 10.5Z" fill="white"/>
</g>
<defs>
<clipPath id="clip0_99_89">
<rect width="12" height="12" fill="white"/>
</clipPath>
</defs>
</svg>
