<svg width="13" height="17" viewBox="0 0 13 17" fill="none" xmlns="http://www.w3.org/2000/svg">
<g clip-path="url(#clip0_100_91)">
<path d="M11.6251 6.12068L11.3751 13.6876C11.3538 14.3356 11.0808 14.9499 10.614 15.3999C10.1473 15.85 9.52348 16.1005 8.87508 16.0982H4.12508C3.47709 16.1005 2.85367 15.8504 2.38698 15.4008C1.92029 14.9513 1.64701 14.3377 1.62508 13.6901L1.37508 6.12068C1.36961 5.95491 1.43021 5.79377 1.54355 5.67269C1.65689 5.55161 1.81369 5.48052 1.97945 5.47505C2.14521 5.46958 2.30636 5.53018 2.42744 5.64352C2.54851 5.75687 2.61961 5.91366 2.62508 6.07943L2.87508 13.6482C2.88753 13.9713 3.0247 14.277 3.25778 14.5011C3.49087 14.7252 3.80173 14.8503 4.12508 14.8501H8.87508C9.19884 14.8503 9.51006 14.7249 9.74321 14.5002C9.97637 14.2756 10.1133 13.9692 10.1251 13.6457L10.3751 6.07943C10.3805 5.91366 10.4516 5.75687 10.5727 5.64352C10.6938 5.53018 10.8549 5.46958 11.0207 5.47505C11.1865 5.48052 11.3433 5.55161 11.4566 5.67269C11.5699 5.79377 11.6305 5.95491 11.6251 6.12068ZM12.452 3.60255C12.452 3.76831 12.3861 3.92728 12.2689 4.04449C12.1517 4.1617 11.9927 4.22755 11.827 4.22755H1.17383C1.00807 4.22755 0.849096 4.1617 0.731886 4.04449C0.614676 3.92728 0.548828 3.76831 0.548828 3.60255C0.548828 3.43679 0.614676 3.27782 0.731886 3.16061C0.849096 3.0434 1.00807 2.97755 1.17383 2.97755H3.11133C3.30936 2.97808 3.5005 2.90492 3.64757 2.7723C3.79463 2.63968 3.88709 2.45708 3.90695 2.26005C3.95307 1.79785 4.16962 1.36938 4.51439 1.05812C4.85916 0.746853 5.30746 0.575092 5.77195 0.5763H7.2282C7.69269 0.575092 8.141 0.746853 8.48577 1.05812C8.83054 1.36938 9.04708 1.79785 9.0932 2.26005C9.11307 2.45708 9.20553 2.63968 9.35259 2.7723C9.49965 2.90492 9.6908 2.97808 9.88883 2.97755H11.8263C11.9921 2.97755 12.1511 3.0434 12.2683 3.16061C12.3855 3.27782 12.452 3.43679 12.452 3.60255ZM4.99195 2.97755H8.00945C7.92732 2.78989 7.87361 2.59104 7.85008 2.38755C7.83459 2.23349 7.76248 2.09067 7.6477 1.98674C7.53293 1.88282 7.38366 1.8252 7.22883 1.82505H5.77258C5.61774 1.8252 5.46848 1.88282 5.3537 1.98674C5.23893 2.09067 5.16681 2.23349 5.15133 2.38755C5.1276 2.59107 5.0743 2.78992 4.99195 2.97755ZM5.62133 12.4469V7.12505C5.62133 6.95929 5.55548 6.80032 5.43827 6.68311C5.32106 6.5659 5.16209 6.50005 4.99633 6.50005C4.83057 6.50005 4.6716 6.5659 4.55439 6.68311C4.43718 6.80032 4.37133 6.95929 4.37133 7.12505V12.4494C4.37133 12.6152 4.43718 12.7742 4.55439 12.8914C4.6716 13.0086 4.83057 13.0744 4.99633 13.0744C5.16209 13.0744 5.32106 13.0086 5.43827 12.8914C5.55548 12.7742 5.62133 12.6152 5.62133 12.4494V12.4469ZM8.63008 12.4469V7.12505C8.63008 6.95929 8.56423 6.80032 8.44702 6.68311C8.32981 6.5659 8.17084 6.50005 8.00508 6.50005C7.83932 6.50005 7.68035 6.5659 7.56314 6.68311C7.44593 6.80032 7.38008 6.95929 7.38008 7.12505V12.4494C7.38008 12.6152 7.44593 12.7742 7.56314 12.8914C7.68035 13.0086 7.83932 13.0744 8.00508 13.0744C8.17084 13.0744 8.32981 13.0086 8.44702 12.8914C8.56423 12.7742 8.63008 12.6152 8.63008 12.4494V12.4469Z" fill="white"/>
</g>
<defs>
<clipPath id="clip0_100_91">
<rect width="13" height="17" fill="white"/>
</clipPath>
</defs>
</svg>
